<svg width="219" height="71" viewBox="0 0 219 71" fill="none" xmlns="http://www.w3.org/2000/svg">
    <path d="M7.92194 60.457H4.63456V68.8864H6.45781V66.0766H7.92194C9.55181 66.0766 10.6568 64.8921 10.6568 63.2668C10.7397 61.6139 9.55181 60.457 7.92194 60.457ZM6.45781 62.0822H7.64569C8.36394 62.0822 8.83356 62.523 8.83356 63.2668C8.83356 64.0105 8.39156 64.4513 7.64569 64.4513H6.45781V62.0822ZM17.5631 60.457H19.3863V65.8011C19.3863 67.7019 18.0327 69.0792 15.9332 69.0792C13.8337 69.0792 12.4801 67.8121 12.4801 65.8011V60.457H14.3033V65.8011C14.3033 66.7102 14.9387 67.3438 15.9332 67.3438C16.9277 67.3438 17.5631 66.7928 17.5631 65.8011V60.457ZM27.0108 64.4238C27.5633 64.0656 27.8396 63.4321 27.8396 62.6883C27.8396 61.3385 26.7346 60.4294 25.2152 60.4294H22.0936V68.8588H25.1876C27.0108 68.8588 28.1987 67.8671 28.1987 66.3245C28.0882 65.443 27.7291 64.6992 27.0108 64.4238ZM25.2704 67.2336H23.9168V65.2502H25.2704C25.9058 65.2502 26.2649 65.6083 26.2649 66.2419C26.2649 66.8755 25.9058 67.2336 25.2704 67.2336ZM25.1047 63.7075H23.8339V62.0822H25.0218C25.5743 62.0822 25.8506 62.3577 25.8506 62.9087C25.9058 63.3494 25.6572 63.7075 25.1047 63.7075ZM32.2872 67.2336H35.8232V68.8588H30.4639V60.4294H32.2872V67.2336ZM37.5636 60.457H39.3868V68.8864H37.5636V60.457ZM48.3926 66.1592L49.3871 67.509L49.3042 67.5917C49.2213 67.6743 48.1163 68.9415 45.9339 68.9415C43.3924 68.9415 41.5692 67.1234 41.5692 64.589C41.5692 62.1373 43.4753 60.2366 45.9339 60.2366C47.9229 60.2366 49.0279 61.3385 49.0279 61.4211L49.1108 61.5038L48.1992 62.8536L48.0058 62.6607C48.0058 62.6607 47.0942 61.8343 45.9063 61.8343C44.4422 61.8343 43.3648 62.9362 43.3648 64.4513C43.3648 65.8011 44.2764 67.1785 45.9063 67.1785C47.1771 67.1785 48.0887 66.1868 48.0887 66.1868L48.3926 66.1592ZM51.2103 60.457H53.0336V68.8864H51.2103V60.457ZM58.6691 60.457H55.7684V68.8864H58.6691C61.2934 68.8864 62.9509 67.2611 62.9509 64.6166C63.0338 62.0822 61.2934 60.457 58.6691 60.457ZM57.5641 62.0822H58.5586C60.1884 62.0822 61.1001 62.9913 61.1001 64.6166C61.1001 66.2419 60.1884 67.2336 58.5586 67.2336H57.5641V62.0822ZM66.8461 60.457L63.8349 68.8864H65.7411L66.4593 66.7928H69.0008L69.7191 68.8864H71.6252L68.6141 60.457H66.8461ZM67.7577 62.7158C67.8406 62.9087 67.8406 63.1566 67.9511 63.2668L68.5864 65.1675H66.9566L67.5919 63.2668C67.6748 63.1566 67.7577 62.8811 67.7577 62.7158ZM76.2109 60.457H73.3103V68.8864H76.2109C78.8353 68.8864 80.4928 67.2611 80.4928 64.6166C80.5757 62.0822 78.8629 60.457 76.2109 60.457ZM75.1336 62.0822H76.1281C77.7579 62.0822 78.6696 62.9913 78.6696 64.6166C78.6696 66.2419 77.7579 67.2336 76.1281 67.2336H75.1336V62.0822ZM84.5813 67.2336H88.1173V68.8588H82.7581V60.4294H87.9516V62.0547H84.5813V63.7902H87.3162V65.4155H84.5813V67.2336ZM96.2114 67.2336H99.7474V68.8588H94.3882V60.4294H99.5817V62.0547H96.2114V63.7902H98.9463V65.4155H96.2114V67.2336ZM113.947 60.457L114.582 68.8864H112.759L112.4 64.1758C112.4 64.0932 112.4 63.983 112.4 63.983C112.4 64.0656 112.317 64.1758 112.317 64.2585L110.963 67.5366H109.416L108.063 64.2585C108.063 64.1758 107.98 64.0656 107.98 63.983C107.98 64.0656 107.98 64.1758 107.98 64.2585L107.621 68.969H105.797L106.516 60.5396H108.422L110.052 64.6166C110.134 64.8094 110.245 65.0573 110.328 65.3328C110.411 65.14 110.521 64.8921 110.604 64.6166L112.234 60.5396H113.974V60.457H113.947ZM119.057 60.457L116.046 68.8864H117.952L118.671 66.7928H121.212L121.93 68.8864H123.836L120.825 60.457H119.057ZM119.969 62.7158C120.052 62.9087 120.052 63.1566 120.162 63.2668L120.798 65.1675H119.168L119.803 63.2668C119.858 63.1566 119.969 62.8811 119.969 62.7158ZM130.135 65.3328C130.964 64.8921 131.406 64.0656 131.406 63.0739C131.406 61.9721 130.853 61.0905 129.942 60.7049C129.582 60.5121 129.113 60.4294 128.201 60.4294H125.383V68.8588H127.207V65.8562H128.312L129.942 68.8588H132.041L130.218 65.5807C130.245 65.443 130.245 65.443 130.135 65.3328ZM127.317 62.0822H128.229C129.334 62.0822 129.5 62.523 129.5 63.1841C129.5 63.9004 129.14 64.286 128.395 64.286H127.207V62.0822H127.317ZM138.063 64.4238L140.605 68.8588H138.505L136.516 65.3328H135.798V68.8588H133.975V60.4294H135.798V63.7075H136.516L138.422 60.4294H140.411L138.063 64.4238ZM144.141 67.2336H147.677V68.8588H142.318V60.4294H147.511V62.0547H144.141V63.7902H146.876V65.4155H144.141V67.2336ZM149.058 60.457H156.241V62.0822H153.616V68.8864H151.793V62.0822H149.058V60.457ZM157.981 60.457H159.804V68.8864H157.981V60.457ZM167.622 60.457H169.445V68.8864H167.705L164.611 64.1758C164.528 63.983 164.418 63.8177 164.335 63.7351C164.335 63.9279 164.335 64.0105 164.335 64.0932V68.8864H162.511V60.457H164.252L167.346 65.1675C167.429 65.3604 167.539 65.5256 167.622 65.6083C167.622 65.4154 167.622 65.3328 167.622 65.2502V60.457ZM179.611 64.2585V68.8864H177.981V68.3355C177.622 68.6109 176.876 68.969 175.799 68.969C173.423 68.969 171.628 67.0683 171.628 64.6166C171.628 62.1649 173.534 60.2641 175.992 60.2641C177.981 60.2641 179.086 61.2558 179.169 61.366L179.252 61.4487L178.341 62.7985L178.147 62.6056C178.147 62.6056 177.318 61.8894 176.158 61.8894C174.611 61.8894 173.534 62.8811 173.534 64.5064C173.534 66.1317 174.528 67.2336 176.075 67.2336C177.07 67.2336 177.705 66.6826 177.899 66.5173V65.8011H176.628V64.1758H179.639V64.2585H179.611ZM92.5926 20.183C89.7748 20.183 87.5096 17.9241 87.5096 15.1143C87.5096 12.3045 89.7748 10.0456 92.5926 10.0456C95.4103 10.0456 97.6756 12.3045 97.6756 15.1143C97.6756 17.9241 95.4103 20.183 92.5926 20.183ZM148.506 20.183C145.688 20.183 143.423 17.9241 143.423 15.1143C143.423 12.3045 145.688 10.0181 148.506 10.0181C151.323 10.0181 153.589 12.277 153.589 15.0868C153.589 17.8966 151.323 20.183 148.506 20.183ZM215.551 16.6294C214.723 16.6294 214.004 16.6294 213.369 16.6294C211.739 16.6294 210.192 16.8222 208.645 17.0702C208.645 17.0702 204.087 34.0392 201.186 44.9204C200.551 44.5622 199.916 43.9287 199.363 43.0196C198.921 42.1932 198.452 41.1189 198.01 39.6589L195.551 30.1275L193.451 22.1388C192.623 19.1362 189.998 17.1528 186.904 17.1528H173.617V6.46451H171.987L163.81 16.9875H157.18C156.462 16.9875 155.909 17.4283 155.633 18.0894C154.445 20.8166 151.71 22.8 148.644 22.8C147.649 22.8 146.738 22.6071 145.826 22.249C144.721 21.8083 143.561 22.6072 143.561 23.7917C143.561 23.7917 143.561 23.7917 143.561 23.8743V44.0113C143.561 45.1132 142.649 45.9947 141.572 45.9947H138.754C137.649 45.9947 136.765 45.0856 136.765 44.0113V29.9622C136.765 25.169 135.77 21.6981 133.671 19.4392C131.571 17.263 128.588 16.0785 124.472 16.0785C123.201 16.0785 122.013 16.2713 120.936 16.6294C119.831 16.9875 118.947 17.4558 118.035 17.9792C117.206 18.5302 116.405 19.1638 115.77 19.88C115.135 20.5962 114.582 21.2298 114.14 21.9736C114.057 21.6155 114.057 21.2573 113.947 20.789C113.836 20.3207 113.753 19.88 113.67 19.329C113.588 18.8883 113.477 18.42 113.394 17.9792C113.311 17.5385 113.118 17.1528 113.035 16.9875C112.4 16.7947 111.764 16.7121 111.129 16.7121C110.494 16.6294 109.858 16.6294 109.029 16.6294C108.201 16.6294 107.482 16.6294 106.847 16.7121C106.212 16.7947 105.576 16.9049 104.941 16.9875V43.5705C104.941 44.8377 103.836 45.9396 102.565 45.9396H100.024C98.7529 45.9396 97.6479 44.8377 97.6479 43.5705V23.709C97.6479 22.5245 96.4601 21.8083 95.3827 22.1664C94.5539 22.5245 93.5594 22.7173 92.6478 22.7173C89.4709 22.7173 86.7361 20.8166 85.6587 18.0068C85.3824 17.3732 84.7471 16.9049 84.1117 16.9049H72.7578V15.3622C72.8407 12.8279 73.3932 11.2026 74.3877 10.4589C75.3822 9.74262 76.7634 9.27432 78.3933 9.27432C79.3049 9.27432 80.0232 9.35696 80.5757 9.46715C81.1282 9.54979 81.6807 9.65998 82.2056 9.74262C82.6476 8.55809 83.0343 7.29093 83.2001 6.1064C83.3934 4.83923 83.5592 3.48942 83.6421 1.94677C82.5371 1.58866 81.4597 1.39583 80.5481 1.31319C79.6364 1.23055 78.4486 1.12036 77.0121 1.12036C74.9126 1.12036 73.0064 1.39583 71.2937 2.02942C69.5533 2.663 68.0063 3.57206 66.8461 4.75658C65.5753 5.94111 64.6637 7.37357 63.9454 9.10904C63.3101 10.8445 62.9509 12.8279 62.9509 15.0041V16.7396H47.6743V15.197C47.7572 12.6626 48.3097 11.0373 49.3042 10.2936C50.2987 9.57734 51.6799 9.10904 53.3098 9.10904C54.2214 9.10904 54.9397 9.19168 55.4922 9.30187C56.0447 9.38451 56.5972 9.4947 57.1221 9.57734C57.5641 8.39281 57.9508 7.12564 58.1166 5.94111C58.3099 4.67394 58.4757 3.32413 58.5586 1.78149C57.4536 1.42338 56.3762 1.23055 55.4646 1.14791C54.5529 1.06527 53.3651 0.955078 51.9286 0.955078C49.8291 0.955078 47.9229 1.23055 46.2102 1.86413C44.4698 2.49772 42.9228 3.40678 41.7626 4.5913C40.4918 5.77583 39.5802 7.20829 38.8619 8.94376C38.2266 10.6792 37.8674 12.6626 37.8674 14.8388V16.5743H32.1491C31.9557 17.2905 31.8728 17.9241 31.8728 18.4751C31.7899 19.026 31.7899 19.6596 31.7899 20.2105C31.7899 20.8441 31.7899 21.4777 31.8728 22.1113C31.9557 22.7449 32.0662 23.3785 32.1491 24.0947H37.2321C37.5912 24.0947 37.8674 24.3702 37.8674 24.7283V43.7634C37.8674 44.7551 37.0387 45.6641 35.9613 45.6641H30.6849C30.3258 45.6641 30.0496 45.3887 30.0496 45.0305V30.706C30.0496 25.6373 28.6959 21.9185 25.9611 19.6321C23.2262 17.3732 19.4968 16.1887 14.6901 16.1887C12.9497 16.1887 11.0436 16.3815 8.97169 16.6294C6.98269 16.9875 4.88319 17.4558 2.86656 18.1721C2.86656 19.6321 3.05994 20.8992 3.30856 21.9736C3.66769 23.0755 4.13731 24.1498 4.77269 25.3343C7.59044 24.3426 10.2424 23.8743 12.7839 23.8743C13.9718 23.8743 14.9663 23.957 15.9608 24.0672C16.8724 24.26 17.7012 24.4253 18.3366 24.8936C18.9719 25.2517 19.5244 25.8026 19.8836 26.5188C20.2427 27.2351 20.4361 28.1441 20.4361 29.246V30.0724C18.8062 29.8796 17.3421 29.8796 15.9884 29.8796C14.1652 29.8796 12.2591 30.0724 10.4358 30.5132C8.61256 30.8713 6.89981 31.5049 5.43569 32.4139C3.88869 33.323 2.70081 34.5075 1.70631 36.0502C0.794688 37.5928 0.242188 39.4109 0.242188 41.6698C0.242188 43.9287 0.601313 45.7468 1.43006 47.2894C2.14831 48.8321 3.25331 50.0992 4.71744 51.0083C6.18156 52 7.81144 52.6336 9.80044 53.1019C10.4358 53.2947 11.1541 53.3773 11.7894 53.46H40.9891C44.7184 53.46 47.8124 50.4573 47.8124 46.6558V26.5188C47.8124 25.417 48.7241 24.5355 49.8014 24.5355H60.9896C62.0946 24.5355 62.9786 25.4445 62.9786 26.5188V52.3581C62.9786 52.9917 63.4206 53.46 64.0836 53.46H71.6528C72.2882 53.46 72.7578 53.0192 72.7578 52.3581V26.5188C72.7578 25.417 73.6694 24.5355 74.7468 24.5355H85.8521C86.9571 24.5355 87.8411 25.4445 87.8411 26.5188V46.6558C87.8411 50.3747 90.8522 53.46 94.6644 53.46H107.565C111.295 53.46 114.389 50.4573 114.389 46.6558V34.0392C114.389 32.1385 114.582 30.5132 115.024 29.3287C115.466 28.1441 116.019 27.1524 116.654 26.5188C117.289 25.8853 118.118 25.417 118.919 25.169C119.748 24.8936 120.549 24.8109 121.378 24.8109C123.284 24.8109 124.665 25.4445 125.383 26.7943C126.102 28.1441 126.571 30.0724 126.571 32.6068V46.6558C126.571 50.3747 129.582 53.46 133.395 53.46H146.296C150.025 53.46 153.119 50.4573 153.119 46.6558V26.5188C153.119 25.417 154.031 24.5355 155.108 24.5355H161.738C162.843 24.5355 163.727 25.4445 163.727 26.5188V40.7607C163.727 45.1958 164.832 48.3913 167.097 50.3747C169.28 52.3581 172.567 53.3773 176.738 53.3773C179.004 53.3773 181.186 53.1019 183.368 52.6611C183.451 52.303 183.451 52.0275 183.451 51.6694C183.451 51.3113 183.451 50.843 183.451 50.4022C183.451 49.686 183.368 48.8596 183.258 47.8679C183.064 46.9588 182.899 45.9672 182.54 45.1407C181.987 45.2234 181.435 45.3336 180.716 45.4162C180.081 45.4988 179.363 45.609 178.617 45.609C177.705 45.609 176.987 45.5264 176.352 45.3336C175.716 45.1407 175.164 44.7826 174.722 44.3419C174.28 43.7909 173.893 43.1573 173.727 42.2483C173.451 41.3392 173.368 40.2649 173.368 38.8049V26.5739C173.368 25.4721 174.28 24.5905 175.357 24.5905H182.54C183.451 24.5905 184.28 25.1415 184.446 26.0506L189.805 44.0939C190.357 45.9947 191.076 47.5373 191.904 48.8045C192.733 50.0717 193.645 50.9807 194.722 51.697C195.717 52.4132 197.347 53.0468 198.645 53.3222C198.562 53.5977 197.54 57.2339 197.54 57.2339C197.181 58.5838 196.711 59.603 196.269 60.3192C195.827 61.0355 195.275 61.5864 194.805 61.9445C194.253 62.3026 193.7 62.4954 193.175 62.5781C192.623 62.6607 192.07 62.6607 191.545 62.6607C190.827 62.6607 190.192 62.5781 189.446 62.4679C188.728 62.3853 188.175 62.1924 187.816 62.1098C187.457 63.0188 187.098 64.0105 186.904 65.0022C186.628 65.9939 186.545 67.0958 186.545 68.1702C186.545 68.363 186.545 68.5283 186.545 68.7211C186.545 68.9139 186.545 69.0792 186.628 69.3547C187.623 69.6302 188.728 69.7955 189.722 69.9883C190.717 70.1811 193.258 70.2638 194.639 70.2638C195.993 70.2638 195.993 70.1811 197.181 69.9056C198.369 69.6302 199.446 69.1894 200.468 68.5558C201.463 67.9222 202.291 67.0132 203.093 65.8287C203.811 64.6441 204.557 63.2117 205.082 61.4762L218.535 17.1253C217.264 16.7396 216.27 16.6294 215.551 16.6294ZM20.3808 45.3887C20.3808 45.7468 20.1046 46.0222 19.7454 46.0222H16.5409C15.9056 46.0222 15.2702 46.0222 14.4414 45.9396C13.6127 45.857 12.8944 45.6641 12.1762 45.3887C11.4579 45.1132 10.8226 44.5622 10.3529 43.9287C9.80044 43.2951 9.63469 42.386 9.63469 41.1188C9.63469 39.3007 10.2701 38.0336 11.6237 37.2072C12.9773 36.3807 14.7177 36.0226 16.9829 36.0226C17.5354 36.0226 18.0879 36.0226 18.7233 36.1053C19.3587 36.1879 19.9941 36.2981 20.5466 36.3807V45.3611H20.3808V45.3887Z"
          fill="#839563"/>
</svg>
