<?xml version="1.0" encoding="UTF-8"?><svg id="b" xmlns="http://www.w3.org/2000/svg" viewBox="0 0 396.2 92.14"><defs><style>.d{fill:#fff;}</style></defs><g id="c"><path class="d" d="M51.93,2.13c-1.47,2.34-2.21,4.9-2.21,7.69v37.16c0,2.79.74,5.36,2.21,7.69v.15h-9.59v-.15c1.52-2.33,2.28-4.9,2.28-7.69v-15.92H7.39v15.92c0,2.79.74,5.36,2.21,7.69v.15H0v-.15c1.52-2.33,2.28-4.9,2.28-7.69V9.82c0-2.79-.76-5.36-2.28-7.69v-.23h9.59v.23c-1.47,2.34-2.21,4.9-2.21,7.69v19.19h37.24V9.82c0-2.79-.76-5.36-2.28-7.69v-.23h9.59v.23Z"/><path class="d" d="M103.87,47.36c1.12,2.54,2.41,4.98,3.88,7.31v.15h-9.44v-.23c1.27-1.93,1.45-3.96.53-6.09l-3.35-7.84h-28.63l-3.43,7.69c-1.02,2.18-.84,4.29.53,6.32v.15h-6.62v-.15c1.83-2.54,3.38-5.25,4.65-8.15L82.7,0h1.29l17.51,41.73,2.36,5.64ZM67.92,38.53h26.5l-12.87-31.3-13.63,31.3Z"/><path class="d" d="M154.35,45.31l.69-.23,2.51,4.72c-1.17.76-2.17,1.37-3.01,1.83-.84.46-2.17,1.09-4,1.9-1.83.81-3.9,1.42-6.21,1.83-2.31.41-4.79.61-7.42.61-5.84,0-10.83-1.23-14.96-3.69-4.14-2.46-7.26-5.8-9.37-10.01-2.11-4.21-3.16-8.87-3.16-13.97s1.05-9.75,3.16-13.94c2.11-4.19,5.23-7.51,9.37-9.98,4.14-2.46,9.12-3.69,14.96-3.69,2.54,0,5,.2,7.39.61,1.83.36,3.58.84,5.25,1.45.56.2,1.12.41,1.68.61,2.33,1.02,4.77,1.4,7.31,1.14l.15.08-1.14,2.28-1.52,2.82-.76,1.45-.23.38h-.61l-.08-.15c-.15-.3-.38-.66-.69-1.07-.66-.91-1.52-1.83-2.59-2.74-1.63-1.32-3.73-2.44-6.32-3.35-.46-.15-1.02-.33-1.68-.53-2.18-.56-4.54-.84-7.08-.84-4.52,0-8.38,1.14-11.57,3.43-3.2,2.28-5.62,5.36-7.27,9.21-1.65,3.86-2.47,8.14-2.47,12.83s.82,8.97,2.47,12.83c1.65,3.86,4.07,6.94,7.27,9.25,3.2,2.31,7.06,3.46,11.57,3.46,3.25,0,6.17-.48,8.76-1.45,2.59-.91,4.7-2.03,6.32-3.35,1.52-1.27,2.61-2.51,3.27-3.73Z"/><path class="d" d="M174.46,54.6l.08.08v.15h-9.59v-.15c1.47-2.28,2.21-4.8,2.21-7.54V9.75c0-2.74-.74-5.25-2.21-7.54l-.08-.08v-.23h9.59v.3c-1.47,2.28-2.21,4.8-2.21,7.54v37.31c0,2.74.74,5.25,2.21,7.54Z"/><path class="d" d="M216.79,52.69c2.84,0,5.46-.71,7.84-2.13h.15l-.53,4.26h-41.12v-.15c1.52-2.33,2.28-4.9,2.28-7.69V9.82c0-2.79-.76-5.36-2.28-7.69v-.23h41.12l.53,4.26h-.15c-2.44-1.42-5.05-2.13-7.84-2.13h-26.27v17.97h12.56c2.64,0,5.05-.69,7.23-2.06h.15v6.32h-.15c-2.18-1.37-4.6-2.06-7.23-2.06h-12.56v28.48h26.27Z"/><path class="d" d="M277.64,2.06v-.15h6.32v.15c-1.37,2.18-2.06,4.6-2.06,7.23v45.54h-1.9c-.25-.86-.61-1.81-1.07-2.86-.46-1.04-1.26-2.52-2.4-4.45-1.14-1.93-2.46-3.81-3.96-5.64-1.5-1.83-3.53-3.85-6.09-6.05-2.56-2.21-5.39-4.25-8.49-6.13-10.81-6.29-18.33-12.72-22.54-19.27v37.16c0,2.59.71,4.98,2.13,7.16v.15h-6.4v-.15c1.42-2.18,2.13-4.57,2.13-7.16V9.29c0-2.59-.71-5-2.13-7.23v-.15h4.87c1.47,3.3,4.06,6.84,7.77,10.62,3.71,3.78,8.71,7.58,15,11.38,10.36,6.3,17.34,12.87,20.94,19.72V15.61h-.08v-6.32c0-2.64-.69-5.05-2.06-7.23Z"/><path class="d" d="M333.07,5.48c3.96,2.39,6.94,5.6,8.95,9.63,2,4.04,3.01,8.47,3.01,13.29s-1.04,9.16-3.12,13.17c-2.03,4.01-5.04,7.21-9.02,9.59-3.99,2.39-8.69,3.6-14.13,3.66h-26.04v-.23c1.47-2.28,2.21-4.82,2.21-7.61V9.82c0-2.79-.74-5.36-2.21-7.69v-.23h26.04c5.58,0,10.36,1.19,14.32,3.58ZM330.1,49.46c2.99-2.16,5.28-5.09,6.85-8.8,1.57-3.71,2.36-7.79,2.36-12.26s-.76-8.54-2.28-12.22c-1.52-3.68-3.81-6.61-6.85-8.8-3.05-2.18-6.68-3.3-10.89-3.35h-19.27v48.66h19.19c4.26,0,7.89-1.08,10.89-3.24Z"/><path class="d" d="M392.31,47.36c1.12,2.54,2.41,4.98,3.88,7.31v.15h-9.44v-.23c1.27-1.93,1.45-3.96.53-6.09l-3.35-7.84h-28.63l-3.43,7.69c-1.02,2.18-.84,4.29.53,6.32v.15h-6.62v-.15c1.83-2.54,3.38-5.25,4.65-8.15L371.14,0h1.29l17.51,41.73,2.36,5.64ZM356.37,38.53h26.5l-12.87-31.3-13.63,31.3Z"/><path class="d" d="M83.86,87.91c-1.16,0-2.26-.2-3.3-.59-1.04-.4-1.84-.91-2.41-1.53l.51-.85c.54.55,1.27,1.02,2.2,1.4.93.38,1.92.57,2.97.57s1.9-.14,2.56-.41c.66-.28,1.16-.65,1.48-1.11s.48-.98.48-1.54c0-.67-.18-1.21-.54-1.61-.36-.4-.83-.72-1.41-.96-.58-.24-1.22-.44-1.9-.6-.69-.16-1.38-.34-2.08-.53s-1.34-.43-1.92-.73-1.05-.71-1.4-1.22-.53-1.18-.53-2c0-.75.19-1.43.58-2.06.39-.63.99-1.13,1.81-1.52.82-.39,1.87-.58,3.16-.58.87,0,1.72.13,2.56.38s1.56.6,2.16,1.03l-.42.92c-.66-.45-1.36-.78-2.12-1-.75-.22-1.48-.32-2.18-.32-1,0-1.83.14-2.48.43-.66.28-1.14.66-1.45,1.13-.31.47-.47,1-.47,1.58,0,.67.17,1.21.53,1.61.35.4.82.72,1.4.96.58.24,1.22.44,1.92.6s1.39.34,2.08.53c.69.19,1.32.43,1.9.73.58.3,1.05.7,1.41,1.21.36.51.54,1.16.54,1.97,0,.73-.2,1.41-.6,2.05-.4.63-1.02,1.14-1.85,1.52-.83.38-1.89.57-3.19.57Z"/><path class="d" d="M99.44,87.89c-1,0-1.87-.18-2.6-.55-.73-.37-1.29-.92-1.69-1.66-.4-.74-.59-1.65-.59-2.74v-6.83h1.12v6.74c0,1.31.34,2.31,1.01,3,.67.69,1.62,1.03,2.84,1.03.88,0,1.64-.19,2.28-.56.64-.37,1.13-.9,1.48-1.58.34-.68.51-1.48.51-2.41v-6.22h1.12v11.68h-1.07v-3.25l.16.38c-.34.91-.91,1.63-1.71,2.16-.8.53-1.75.79-2.85.79Z"/><path class="d" d="M114.5,87.89c-.87,0-1.62-.14-2.25-.41-.63-.28-1.12-.67-1.46-1.17s-.5-1.09-.5-1.75c0-.6.14-1.14.41-1.62.28-.48.73-.88,1.38-1.19.64-.31,1.5-.46,2.57-.46h4.3v.87h-4.27c-1.21,0-2.06.22-2.54.67-.49.45-.73,1.01-.73,1.68,0,.75.28,1.34.85,1.79.57.45,1.37.67,2.39.67s1.82-.22,2.5-.67c.68-.45,1.18-1.1,1.51-1.95l.31.76c-.31.85-.85,1.53-1.6,2.03-.75.5-1.71.75-2.88.75ZM118.71,87.8v-2.66l-.04-.4v-4.39c0-1.09-.29-1.92-.88-2.48-.59-.57-1.45-.85-2.59-.85-.81,0-1.56.14-2.25.41-.69.28-1.29.63-1.78,1.06l-.56-.81c.58-.52,1.28-.93,2.1-1.22.82-.29,1.68-.44,2.57-.44,1.45,0,2.56.37,3.34,1.1.78.73,1.16,1.82,1.16,3.27v7.41h-1.07Z"/><path class="d" d="M138.13,87.89c-1.13,0-2.15-.25-3.03-.76-.89-.51-1.59-1.21-2.1-2.1s-.77-1.92-.77-3.07.26-2.19.77-3.09c.51-.89,1.22-1.59,2.1-2.09.89-.5,1.9-.75,3.03-.75.94,0,1.79.18,2.56.54.77.36,1.39.9,1.87,1.61l-.83.6c-.42-.6-.94-1.04-1.57-1.32-.63-.28-1.31-.43-2.04-.43-.91,0-1.73.21-2.45.62s-1.29.98-1.7,1.72c-.41.74-.62,1.6-.62,2.59s.21,1.85.62,2.59c.41.74.98,1.31,1.7,1.72.72.41,1.54.62,2.45.62.73,0,1.41-.14,2.04-.43.63-.28,1.15-.72,1.57-1.32l.83.6c-.48.72-1.1,1.25-1.87,1.61-.77.36-1.62.54-2.56.54Z"/><path class="d" d="M150.75,87.89c-.87,0-1.62-.14-2.25-.41-.63-.28-1.12-.67-1.46-1.17s-.5-1.09-.5-1.75c0-.6.14-1.14.41-1.62.28-.48.73-.88,1.38-1.19.64-.31,1.5-.46,2.57-.46h4.3v.87h-4.27c-1.21,0-2.06.22-2.54.67-.49.45-.73,1.01-.73,1.68,0,.75.28,1.34.85,1.79.57.45,1.37.67,2.39.67s1.82-.22,2.5-.67c.68-.45,1.18-1.1,1.51-1.95l.31.76c-.31.85-.85,1.53-1.6,2.03-.75.5-1.71.75-2.88.75ZM154.96,87.8v-2.66l-.04-.4v-4.39c0-1.09-.29-1.92-.88-2.48-.59-.57-1.45-.85-2.59-.85-.81,0-1.56.14-2.25.41-.69.28-1.29.63-1.78,1.06l-.56-.81c.58-.52,1.28-.93,2.1-1.22.82-.29,1.68-.44,2.57-.44,1.45,0,2.56.37,3.34,1.1.78.73,1.16,1.82,1.16,3.27v7.41h-1.07Z"/><path class="d" d="M165.28,87.89c-.97,0-1.88-.14-2.72-.42s-1.5-.64-1.96-1.07l.51-.9c.45.39,1.04.72,1.79,1,.75.28,1.55.41,2.42.41,1.22,0,2.1-.2,2.64-.6.54-.4.81-.93.81-1.59,0-.48-.14-.85-.41-1.13s-.65-.49-1.11-.64c-.46-.15-.97-.27-1.52-.37-.55-.1-1.1-.21-1.66-.32-.55-.12-1.06-.29-1.52-.51-.46-.22-.83-.53-1.11-.93-.28-.39-.41-.92-.41-1.58,0-.6.16-1.13.49-1.61.33-.48.82-.86,1.48-1.15.66-.29,1.48-.44,2.46-.44.73,0,1.47.1,2.2.31.74.21,1.34.49,1.8.83l-.51.9c-.49-.37-1.04-.64-1.66-.81-.61-.16-1.23-.25-1.86-.25-1.13,0-1.97.21-2.5.63-.53.42-.79.94-.79,1.57,0,.49.14.88.41,1.17.28.29.65.51,1.11.67s.97.28,1.52.38c.55.1,1.1.21,1.66.32.55.12,1.06.29,1.52.5.46.22.83.51,1.11.89.28.38.41.89.41,1.53s-.18,1.2-.53,1.68c-.35.48-.87.85-1.56,1.12-.69.27-1.53.4-2.53.4Z"/><path class="d" d="M177.86,87.89c-.87,0-1.62-.14-2.25-.41-.63-.28-1.12-.67-1.46-1.17s-.5-1.09-.5-1.75c0-.6.14-1.14.41-1.62.28-.48.73-.88,1.38-1.19.64-.31,1.5-.46,2.57-.46h4.3v.87h-4.27c-1.21,0-2.06.22-2.54.67-.49.45-.73,1.01-.73,1.68,0,.75.28,1.34.85,1.79.57.45,1.37.67,2.39.67s1.82-.22,2.5-.67c.68-.45,1.18-1.1,1.51-1.95l.31.76c-.31.85-.85,1.53-1.6,2.03-.75.5-1.71.75-2.88.75ZM182.06,87.8v-2.66l-.04-.4v-4.39c0-1.09-.29-1.92-.88-2.48-.59-.57-1.45-.85-2.59-.85-.81,0-1.56.14-2.25.41-.69.28-1.29.63-1.78,1.06l-.56-.81c.58-.52,1.28-.93,2.1-1.22.82-.29,1.68-.44,2.57-.44,1.45,0,2.56.37,3.34,1.1.78.73,1.16,1.82,1.16,3.27v7.41h-1.07Z"/><path class="d" d="M202.56,76.03c.96,0,1.79.18,2.5.55.71.37,1.26.92,1.66,1.66.4.74.59,1.65.59,2.74v6.83h-1.12v-6.74c0-1.31-.33-2.31-1-3-.66-.69-1.59-1.03-2.79-1.03-.91,0-1.7.19-2.37.56-.67.37-1.18.9-1.53,1.57-.35.67-.53,1.48-.53,2.42v6.22h-1.12v-11.68h1.07v3.25l-.16-.36c.36-.93.95-1.65,1.77-2.18.82-.53,1.83-.79,3.02-.79Z"/><path class="d" d="M218.16,87.89c-1.12,0-2.12-.25-2.99-.76-.87-.51-1.57-1.21-2.08-2.1s-.77-1.92-.77-3.07.26-2.19.77-3.08c.51-.89,1.21-1.59,2.08-2.09.87-.51,1.87-.76,2.99-.76s2.12.25,3,.76c.88.51,1.57,1.21,2.08,2.09.51.89.76,1.91.76,3.08s-.25,2.17-.76,3.07-1.2,1.6-2.08,2.1c-.88.51-1.88.76-3,.76ZM218.16,86.88c.9,0,1.7-.21,2.42-.62.72-.41,1.28-.99,1.68-1.73s.6-1.6.6-2.57-.2-1.85-.6-2.59c-.4-.74-.96-1.31-1.68-1.72-.72-.41-1.52-.62-2.42-.62s-1.7.21-2.41.62c-.71.41-1.27.98-1.68,1.72-.41.74-.62,1.6-.62,2.59s.21,1.83.62,2.57c.41.75.97,1.32,1.68,1.73.71.41,1.51.62,2.41.62Z"/><path class="d" d="M241.21,87.89c-1.13,0-2.15-.25-3.03-.76-.89-.51-1.59-1.21-2.1-2.1s-.77-1.92-.77-3.07.26-2.19.77-3.09c.51-.89,1.22-1.59,2.1-2.09.89-.5,1.9-.75,3.03-.75.94,0,1.79.18,2.56.54.77.36,1.39.9,1.87,1.61l-.83.6c-.42-.6-.94-1.04-1.57-1.32-.63-.28-1.31-.43-2.04-.43-.91,0-1.73.21-2.45.62s-1.29.98-1.7,1.72c-.41.74-.62,1.6-.62,2.59s.21,1.85.62,2.59c.41.74.98,1.31,1.7,1.72.72.41,1.54.62,2.45.62.73,0,1.41-.14,2.04-.43.63-.28,1.15-.72,1.57-1.32l.83.6c-.48.72-1.1,1.25-1.87,1.61-.77.36-1.62.54-2.56.54Z"/><path class="d" d="M253.84,87.89c-.87,0-1.62-.14-2.25-.41-.63-.28-1.12-.67-1.46-1.17s-.5-1.09-.5-1.75c0-.6.14-1.14.41-1.62.28-.48.73-.88,1.38-1.19.64-.31,1.5-.46,2.57-.46h4.3v.87h-4.27c-1.21,0-2.06.22-2.54.67-.49.45-.73,1.01-.73,1.68,0,.75.28,1.34.85,1.79.57.45,1.37.67,2.39.67s1.82-.22,2.5-.67c.68-.45,1.18-1.1,1.51-1.95l.31.76c-.31.85-.85,1.53-1.6,2.03-.75.5-1.71.75-2.88.75ZM258.04,87.8v-2.66l-.04-.4v-4.39c0-1.09-.29-1.92-.88-2.48-.59-.57-1.45-.85-2.59-.85-.81,0-1.56.14-2.25.41-.69.28-1.29.63-1.78,1.06l-.56-.81c.58-.52,1.28-.93,2.1-1.22.82-.29,1.68-.44,2.57-.44,1.45,0,2.56.37,3.34,1.1.78.73,1.16,1.82,1.16,3.27v7.41h-1.07Z"/><path class="d" d="M279.95,76.03c.94,0,1.76.18,2.45.55.69.37,1.23.92,1.62,1.66.39.74.58,1.65.58,2.74v6.83h-1.12v-6.74c0-1.31-.32-2.31-.96-3-.64-.69-1.54-1.03-2.69-1.03-.88,0-1.64.19-2.28.56-.64.37-1.13.9-1.48,1.57-.34.67-.51,1.48-.51,2.42v6.22h-1.12v-6.74c0-1.31-.32-2.31-.96-3-.64-.69-1.54-1.03-2.69-1.03-.88,0-1.64.19-2.28.56s-1.13.9-1.48,1.57c-.34.67-.51,1.48-.51,2.42v6.22h-1.12v-11.68h1.07v3.22l-.16-.36c.34-.91.92-1.63,1.72-2.16.81-.53,1.78-.79,2.91-.79s2.14.29,2.94.88c.8.59,1.3,1.47,1.51,2.63l-.38-.16c.31-1,.9-1.81,1.77-2.43.87-.62,1.92-.93,3.16-.93Z"/><path class="d" d="M290.9,92.14v-16.02h1.07v3.83l-.18,2.04.22,2.04v8.12h-1.12ZM296.76,87.89c-1.03,0-1.96-.24-2.79-.72-.83-.48-1.48-1.16-1.97-2.05-.49-.89-.73-1.94-.73-3.17s.24-2.28.73-3.17c.48-.89,1.14-1.57,1.97-2.05s1.76-.72,2.79-.72c1.1,0,2.09.25,2.97.75.87.5,1.56,1.2,2.06,2.09.5.9.75,1.92.75,3.09s-.25,2.19-.75,3.09c-.5.89-1.19,1.59-2.06,2.09-.87.5-1.86.75-2.97.75ZM296.69,86.88c.9,0,1.7-.21,2.42-.62.72-.41,1.28-.99,1.69-1.73.41-.75.62-1.6.62-2.57s-.21-1.85-.62-2.59c-.41-.74-.97-1.31-1.69-1.72s-1.52-.62-2.42-.62-1.7.21-2.41.62c-.71.41-1.27.98-1.68,1.72-.41.74-.62,1.6-.62,2.59s.21,1.83.62,2.57c.41.75.97,1.32,1.68,1.73.71.41,1.51.62,2.41.62Z"/><path class="d" d="M312.25,87.89c-1.12,0-2.12-.25-2.99-.76-.87-.51-1.57-1.21-2.08-2.1-.51-.9-.77-1.92-.77-3.07s.26-2.19.77-3.08c.51-.89,1.21-1.59,2.08-2.09.87-.51,1.87-.76,2.99-.76s2.12.25,3,.76c.88.51,1.57,1.21,2.08,2.09.51.89.76,1.91.76,3.08s-.25,2.17-.76,3.07-1.2,1.6-2.08,2.1c-.88.51-1.88.76-3,.76ZM312.25,86.88c.9,0,1.7-.21,2.42-.62.72-.41,1.28-.99,1.68-1.73s.6-1.6.6-2.57-.2-1.85-.6-2.59c-.4-.74-.96-1.31-1.68-1.72s-1.52-.62-2.42-.62-1.7.21-2.41.62c-.71.41-1.27.98-1.68,1.72-.41.74-.62,1.6-.62,2.59s.21,1.83.62,2.57c.41.75.97,1.32,1.68,1.73.71.41,1.51.62,2.41.62Z"/></g></svg>