<svg width="32" height="32" viewBox="0 0 32 32" fill="none" xmlns="http://www.w3.org/2000/svg">
<path d="M16.04 6.76C21.16 6.76 25.32 10.93 25.32 16.04C25.32 21.15 21.15 25.32 16.04 25.32C10.93 25.32 6.76 21.16 6.76 16.04C6.76 10.92 10.92 6.76 16.04 6.76ZM16.04 5C9.94 5 5 9.94 5 16.04C5 22.14 9.94 27.08 16.04 27.08C22.14 27.08 27.08 22.14 27.08 16.04C27.08 9.94 22.14 5 16.04 5Z" fill="#C1CAB1"/>
<path fill-rule="evenodd" clip-rule="evenodd" d="M12.94 10.41C13.61 10.28 14.04 11.04 14.38 11.55C14.7 12.05 15.1 12.64 14.94 13.3C14.85 13.67 14.52 13.87 14.27 14.09C14.02 14.3 13.64 14.5 13.55 14.83C13.4 15.36 13.73 15.92 13.93 16.24C14.39 16.96 14.95 17.61 15.66 18.19C16 18.47 16.48 18.85 16.96 18.75C17.68 18.61 17.86 17.72 18.64 17.61C19.38 17.5 19.88 18.04 20.3 18.4C20.7 18.75 21.35 19.19 21.31 19.79C21.28 20.13 21.01 20.35 20.77 20.55C20.53 20.76 20.32 21 20.08 21.16C19.5 21.54 18.79 21.72 17.97 21.7C17.17 21.68 16.53 21.4 15.95 21.09C14.82 20.49 13.92 19.64 13.08 18.69C12.25 17.76 11.48 16.66 11.06 15.44C10.53 13.92 10.81 12.36 11.67 11.38C11.81 11.21 12.04 11.04 12.25 10.86C12.46 10.68 12.65 10.47 12.95 10.41H12.94Z" fill="#C1CAB1"/>
</svg>
