<svg width="24" height="24" viewBox="0 0 24 24" fill="none" xmlns="http://www.w3.org/2000/svg">
<path d="M17.13 5.42C16.51 5.42 16.01 5.92 16.01 6.54C16.01 7.16 16.51 7.66 17.13 7.66C17.75 7.66 18.25 7.16 18.25 6.54C18.25 5.92 17.75 5.42 17.13 5.42Z" fill="#A85E36"/>
<path d="M12.15 14.59C10.49 14.59 9.13 13.24 9.13 11.57C9.13 9.9 10.48 8.55 12.15 8.55C13.82 8.55 15.17 9.9 15.17 11.57C15.17 13.24 13.81 14.59 12.15 14.59ZM12.15 6.86C9.55 6.86 7.44 8.97 7.44 11.57C7.44 14.17 9.55 16.28 12.15 16.28C14.75 16.28 16.86 14.16 16.86 11.57C16.86 8.98 14.75 6.86 12.15 6.86Z" fill="#A85E36"/>
<path d="M8.25 3.8C6.07 3.8 4.3 5.57 4.3 7.75V15.39C4.3 17.57 6.07 19.34 8.25 19.34H15.89C18.07 19.34 19.84 17.57 19.84 15.39V7.75C19.84 5.57 18.07 3.8 15.89 3.8H8.25ZM15.89 21.13H8.25C5.08 21.13 2.5 18.55 2.5 15.38V7.74C2.5 4.58 5.08 2 8.25 2H15.89C19.06 2 21.64 4.58 21.64 7.75V15.39C21.64 18.56 19.06 21.14 15.89 21.14" fill="#A85E36"/>
</svg>
