<svg width="32" height="32" viewBox="0 0 32 32" fill="none" xmlns="http://www.w3.org/2000/svg">
<path d="M5.01 27.09L6.59 21.18C5.69 19.56 5.22 17.75 5.22 15.91C5.23 9.89 10.12 5 16.13 5C22.14 5 27.04 9.89 27.04 15.91C27.04 21.93 22.15 26.82 16.13 26.82C14.32 26.82 12.54 26.36 10.94 25.5L5 27.09H5.01ZM11.24 23.28L11.61 23.5C12.98 24.32 14.54 24.75 16.13 24.75C21.01 24.75 24.98 20.78 24.98 15.9C24.98 11.02 21.01 7.06 16.13 7.06C11.25 7.06 7.29 11.03 7.29 15.91C7.29 17.52 7.74 19.11 8.58 20.5L8.81 20.88L7.93 24.18L11.25 23.29L11.24 23.28Z" fill="#C1CAB1"/>
<path fill-rule="evenodd" clip-rule="evenodd" d="M20.19 17.43C19.74 17.16 19.16 16.86 18.63 17.08C18.22 17.25 17.97 17.88 17.7 18.21C17.57 18.38 17.4 18.4 17.2 18.32C15.68 17.71 14.51 16.7 13.67 15.3C13.53 15.08 13.55 14.91 13.72 14.71C13.97 14.41 14.29 14.07 14.36 13.67C14.43 13.27 14.24 12.8 14.07 12.44C13.86 11.98 13.62 11.33 13.16 11.07C12.74 10.83 12.18 10.96 11.81 11.27C11.16 11.8 10.85 12.63 10.86 13.45C10.86 13.68 10.89 13.92 10.95 14.14C11.08 14.68 11.33 15.19 11.61 15.67C11.82 16.03 12.05 16.38 12.3 16.72C13.11 17.83 14.13 18.79 15.3 19.51C15.89 19.87 16.52 20.18 17.17 20.4C17.9 20.64 18.56 20.89 19.35 20.74C20.18 20.58 21 20.07 21.33 19.27C21.43 19.03 21.48 18.77 21.42 18.52C21.31 18 20.61 17.7 20.19 17.45V17.43Z" fill="#C1CAB1"/>
</svg>
