<svg width="32" height="32" viewBox="0 0 32 32" fill="none" xmlns="http://www.w3.org/2000/svg">
<path d="M27.9767 15.3963C27.8132 9.06329 22.6148 4 16.2101 4C9.80545 4 4.72374 8.94645 4.45914 15.1782C4.4358 15.3418 4.4358 15.5209 4.4358 15.6845C4.4358 17.8968 5.05837 19.9688 6.12451 21.7371L4 28L10.5292 25.9279C12.2179 26.8549 14.1634 27.3768 16.2101 27.3768C22.716 27.3768 28 22.15 28 15.6767C28 15.5755 27.9767 15.4976 27.9767 15.3963ZM21.6109 18.0526C21.3074 17.9124 19.9066 17.2113 19.642 17.11C19.3619 17.0321 19.1829 16.9698 18.9805 17.2736C18.8016 17.554 18.2412 18.2006 18.0778 18.3797C17.8988 18.5823 17.7354 18.5979 17.4553 18.4576C17.1518 18.3174 16.2335 18.0136 15.1284 17.0321C14.2646 16.2687 13.6809 15.3418 13.5253 15.0613C13.3619 14.7575 13.5019 14.6173 13.642 14.4615C13.7821 14.3369 13.9455 14.1422 14.0856 13.9552C14.1245 13.9163 14.1634 13.8773 14.1868 13.8306C14.2646 13.7137 14.3035 13.6125 14.3658 13.4878C14.4669 13.2853 14.428 13.1295 14.3502 12.9815C14.2879 12.8413 13.7043 11.4158 13.463 10.8549C13.2218 10.2707 12.9805 10.372 12.8171 10.372C12.6381 10.372 12.4591 10.3486 12.2568 10.3486C12.0545 10.3486 11.7588 10.4109 11.4942 10.7147C11.214 10.9951 10.4669 11.6806 10.4669 13.1061C10.4669 13.4255 10.5292 13.7683 10.6304 14.0721C10.9105 15.1003 11.5564 15.9182 11.6576 16.0584C11.7977 16.261 13.642 19.2366 16.5759 20.3817C19.5253 21.5268 19.5253 21.1451 20.0467 21.1061C20.5681 21.0672 21.751 20.4206 21.9922 19.7352C22.2335 19.073 22.2335 18.4888 22.1556 18.3642C22.0934 18.2629 21.8988 18.185 21.6109 18.0448M16.2101 25.5307C14.2023 25.5307 12.3346 24.9309 10.7704 23.9026L6.97276 25.11L8.19455 21.4489C7.01167 19.8442 6.3035 17.8345 6.3035 15.6767C6.3035 15.3574 6.32685 15.0536 6.36576 14.7342C6.84825 9.74878 11.0895 5.84615 16.2101 5.84615C21.3307 5.84615 25.6887 9.85005 26.0934 14.9133C26.1167 15.1704 26.1167 15.4352 26.1167 15.6767C26.1167 21.1061 21.6809 25.5229 16.2179 25.5229" fill="#A85E36"/>
</svg>
