<svg width="33" height="32" viewBox="0 0 33 32" fill="none" xmlns="http://www.w3.org/2000/svg">
<path d="M14.748 4C13.1339 4 11.8268 5.31702 11.8268 6.94347V12.1719H6.92126C5.30709 12.1719 4 13.4889 4 15.1154V21.6529C4 23.2793 5.30709 24.5964 6.92126 24.5964H7.37795V26.6354C7.37795 27.1907 7.69291 27.6668 8.19685 27.8889C8.37008 27.9683 8.55905 28 8.74016 28C9.07874 28 9.40945 27.8731 9.66929 27.635L12.8819 24.5964H17.252C18.8661 24.5964 20.1732 23.2793 20.1732 21.6529V17.4083L22.3386 19.4473C22.5984 19.6932 22.9291 19.8202 23.2677 19.8202C23.4488 19.8202 23.6299 19.7805 23.8031 19.7091C24.2992 19.4949 24.622 19.003 24.622 18.4555V16.4245H25.0787C26.6929 16.4245 28 15.1074 28 13.481V6.94347C28 5.31702 26.6929 4 25.0787 4H14.748ZM18.6929 21.6529C18.6929 22.4542 18.0472 23.1127 17.2441 23.1127H12.5827C12.3937 23.1127 12.2126 23.1841 12.0787 23.3111L8.85039 26.3656V23.8506C8.85039 23.438 8.51968 23.1048 8.11024 23.1048H6.91339C6.11811 23.1048 5.46457 22.4542 5.46457 21.645V15.1074C5.46457 14.3061 6.11024 13.6476 6.91339 13.6476H11.8268C11.9213 15.1868 13.189 16.4165 14.7402 16.4165H18.685V21.645L18.6929 21.6529ZM26.5197 13.481C26.5197 14.2823 25.874 14.9408 25.0709 14.9408H23.874C23.4646 14.9408 23.1339 15.274 23.1339 15.6866V18.1858C23.1339 18.1858 19.937 15.163 19.9291 15.155L19.9134 15.1392C19.7795 15.0122 19.5984 14.9408 19.4094 14.9408H14.748C13.9528 14.9408 13.2992 14.2823 13.2992 13.481V6.94347C13.2992 6.14215 13.9449 5.48364 14.7402 5.48364H25.063C25.8583 5.48364 26.5118 6.13421 26.5118 6.94347V13.481H26.5197Z" fill="#C1CAB1"/>
<path d="M22.8583 7.93521H16.9606C16.5512 7.93521 16.2205 8.26843 16.2205 8.68099C16.2205 9.09355 16.5512 9.42678 16.9606 9.42678H22.8583C23.2677 9.42678 23.5984 9.09355 23.5984 8.68099C23.5984 8.26843 23.2677 7.93521 22.8583 7.93521Z" fill="#C1CAB1"/>
<path d="M22.8583 10.9104H16.9606C16.5512 10.9104 16.2205 11.2436 16.2205 11.6562C16.2205 12.0688 16.5512 12.402 16.9606 12.402H22.8583C23.2677 12.402 23.5984 12.0688 23.5984 11.6562C23.5984 11.2436 23.2677 10.9104 22.8583 10.9104Z" fill="#C1CAB1"/>
<path d="M9.14173 17.6621C9.05512 17.6939 8.97638 17.7494 8.90551 17.8129C8.77165 17.9636 8.68504 18.154 8.68504 18.3445C8.68504 18.5349 8.77165 18.7332 8.90551 18.8602C9.05512 19.0109 9.22835 19.0823 9.4252 19.0823C9.52756 19.0823 9.62992 19.0506 9.71654 19.0188C9.80315 18.9871 9.88189 18.9316 9.95276 18.8522C10.0866 18.7174 10.1732 18.5269 10.1732 18.3365C10.1732 18.1461 10.0866 17.9478 9.95276 17.805C9.74803 17.6145 9.4252 17.5352 9.14173 17.6542V17.6621Z" fill="#C1CAB1"/>
<path d="M12.6693 17.6621C12.3858 17.5431 12.063 17.6145 11.8583 17.8129C11.7244 17.9636 11.6535 18.154 11.6535 18.3445C11.6535 18.5349 11.7244 18.7332 11.8583 18.8602C11.9291 18.9316 12.0079 18.995 12.0945 19.0268C12.1968 19.0585 12.2835 19.0902 12.3858 19.0902C12.5748 19.0902 12.7559 19.0109 12.9055 18.8681C13.0394 18.7332 13.126 18.5428 13.126 18.3524C13.126 18.162 13.0394 17.9636 12.9055 17.8208C12.8346 17.7653 12.7559 17.7018 12.6693 17.6701V17.6621Z" fill="#C1CAB1"/>
<path d="M14.8031 18.8681C14.9528 19.0188 15.126 19.0902 15.3228 19.0902C15.4252 19.0902 15.5276 19.0585 15.6142 19.0268C15.7008 18.995 15.7795 18.9395 15.8504 18.8602C15.9843 18.7253 16.0551 18.5349 16.0551 18.3445C16.0551 18.154 15.9843 17.9557 15.8504 17.8129C15.7795 17.7574 15.7008 17.6939 15.6142 17.6621C15.4409 17.5828 15.2283 17.5828 15.0394 17.6621C14.9528 17.6939 14.874 17.7494 14.8031 17.8129C14.6693 17.9636 14.5827 18.154 14.5827 18.3445C14.5827 18.5349 14.6693 18.7332 14.8031 18.8602V18.8681Z" fill="#C1CAB1"/>
<path d="M7.95276 10.1646H9.4252C9.83465 10.1646 10.1654 9.8314 10.1654 9.41884C10.1654 9.00628 9.83465 8.67306 9.4252 8.67306H7.95276C7.54331 8.67306 7.2126 9.00628 7.2126 9.41884C7.2126 9.8314 7.54331 10.1646 7.95276 10.1646Z" fill="#C1CAB1"/>
<path d="M24.1811 22.0575H22.7087C22.2992 22.0575 21.9685 22.3907 21.9685 22.8033C21.9685 23.2159 22.2992 23.5491 22.7087 23.5491H24.1811C24.5906 23.5491 24.9213 23.2159 24.9213 22.8033C24.9213 22.3907 24.5906 22.0575 24.1811 22.0575Z" fill="#C1CAB1"/>
</svg>
