<svg width="32" height="32" viewBox="0 0 32 32" fill="none" xmlns="http://www.w3.org/2000/svg">
<path d="M16.33 3C10.63 3 6 7.63 6 13.33C6 17.13 10.16 22.84 13.66 26.95C14.33 27.74 15.3 28.19 16.33 28.19C17.36 28.19 18.33 27.74 19 26.95C22.49 22.83 26.66 17.13 26.66 13.33C26.66 7.63 22.02 3 16.33 3ZM16.86 25.14C16.68 25.35 16.45 25.39 16.33 25.39C16.21 25.39 15.98 25.36 15.8 25.14C11.42 19.98 8.81 15.57 8.81 13.33C8.81 9.18 12.19 5.81 16.33 5.81C20.47 5.81 23.85 9.18 23.85 13.33C23.85 15.56 21.24 19.98 16.86 25.14Z" fill="#3D4926"/>
<path d="M18.46 12.9C18.46 14.08 17.5 15.03 16.33 15.03C15.16 15.03 14.2 14.07 14.2 12.9C14.2 11.73 15.16 10.77 16.33 10.77C17.5 10.77 18.46 11.73 18.46 12.9Z" fill="#3D4926"/>
</svg>
