<svg width="33" height="32" viewBox="0 0 33 32" fill="none" xmlns="http://www.w3.org/2000/svg">
<g clip-path="url(#clip0_4217_736)">
<path d="M0.5 0V32H32.5V0H0.5ZM13.69 20.22L20.72 16L13.69 11.78V20.22ZM27.75 16.91C27.75 18.85 27.52 20.79 27.52 20.79C27.52 20.79 27.3 22.44 26.63 23.17C25.77 24.13 24.82 24.13 24.38 24.19C21.23 24.43 16.5 24.44 16.5 24.44C16.5 24.44 10.65 24.38 8.85 24.2C8.35 24.1 7.23 24.13 6.37 23.17C5.7 22.44 5.48 20.79 5.48 20.79C5.48 20.79 5.25 18.85 5.25 16.91V15.09C5.25 13.15 5.48 11.21 5.48 11.21C5.48 11.21 5.7 9.56 6.37 8.83C7.23 7.87 8.18 7.87 8.62 7.81C11.77 7.57 16.49 7.57 16.49 7.57H16.5C16.5 7.57 21.22 7.57 24.37 7.81C24.81 7.86 25.77 7.87 26.62 8.83C27.29 9.56 27.51 11.21 27.51 11.21C27.51 11.21 27.74 13.15 27.74 15.09V16.91H27.75Z" fill="#A85E36"/>
</g>
<defs>
<clipPath id="clip0_4217_736">
<rect width="32" height="32" fill="white" transform="translate(0.5)"/>
</clipPath>
</defs>
</svg>
