<svg width="33" height="32" viewBox="0 0 33 32" fill="none" xmlns="http://www.w3.org/2000/svg">
<g clip-path="url(#clip0_4217_692)">
<path d="M0.5 0V32H32.5V0H0.5ZM27.73 20.49C27.73 24.21 24.7 27.24 20.98 27.24H12.01C8.29 27.24 5.26 24.21 5.26 20.49V11.52C5.26 7.8 8.29 4.77 12.01 4.77H20.98C24.7 4.77 27.73 7.8 27.73 11.52V20.49Z" fill="#A85E36"/>
<path d="M16.59 12.46C14.64 12.46 13.05 14.05 13.05 16C13.05 17.95 14.64 19.54 16.59 19.54C18.54 19.54 20.13 17.95 20.13 16C20.13 14.05 18.54 12.46 16.59 12.46Z" fill="#A85E36"/>
<path d="M20.99 6.88H12.02C9.46 6.88 7.38 8.96 7.38 11.52V20.49C7.38 23.05 9.46 25.13 12.02 25.13H20.99C23.55 25.13 25.63 23.05 25.63 20.49V11.52C25.63 8.96 23.55 6.88 20.99 6.88ZM16.59 21.53C13.54 21.53 11.06 19.05 11.06 16C11.06 12.95 13.54 10.47 16.59 10.47C19.64 10.47 22.12 12.95 22.12 16C22.12 19.05 19.64 21.53 16.59 21.53ZM22.45 11.41C21.72 11.41 21.13 10.82 21.13 10.09C21.13 9.36 21.72 8.77 22.45 8.77C23.18 8.77 23.77 9.36 23.77 10.09C23.77 10.82 23.18 11.41 22.45 11.41Z" fill="#A85E36"/>
</g>
<defs>
<clipPath id="clip0_4217_692">
<rect width="32" height="32" fill="white" transform="translate(0.5)"/>
</clipPath>
</defs>
</svg>
